<svg width="312" height="312" viewBox="0 0 312 312" fill="none" xmlns="http://www.w3.org/2000/svg">
<path d="M7.67136 161.25C3.83963 157.273 3.95772 150.942 7.93511 147.11L36.742 119.359C56.6289 100.2 88.2817 100.79 107.44 120.677L135.192 149.484C139.024 153.462 138.906 159.792 134.928 163.624L77.3147 219.128C73.3374 222.959 67.0068 222.841 63.1751 218.864L7.67136 161.25Z" fill="#6D83F2"/>
<circle cx="62.7336" cy="148.719" r="25" fill="white"/>
<rect x="62.7354" y="148.719" width="40" height="40" fill="#6D83F2"/>
<circle cx="97.7354" cy="183.719" r="5" fill="white"/>
<circle cx="82.7354" cy="168.719" r="10" fill="white"/>
<path d="M117.425 275.108C98.2665 255.221 98.8569 223.568 118.744 204.409L147.551 176.657C151.528 172.826 157.859 172.944 161.69 176.921L217.194 234.535C221.026 238.512 220.908 244.843 216.93 248.675L159.317 304.178C155.339 308.01 149.009 307.892 145.177 303.915L117.425 275.108Z" fill="#C4C4C4"/>
<path fill-rule="evenodd" clip-rule="evenodd" d="M174.336 289.709L159.317 304.178C158.55 304.917 157.696 305.509 156.789 305.955C148.921 296.833 146.105 283.829 150.55 271.719L155.915 273.688C164.138 276.707 170.509 282.546 174.336 289.709Z" fill="#DADADA"/>
<path d="M153.551 225.719L158.915 227.688C176.691 234.214 185.811 253.913 179.286 271.689V271.689L173.921 269.72C156.146 263.195 147.025 243.495 153.551 225.719V225.719Z" fill="#DADADA"/>
<path fill-rule="evenodd" clip-rule="evenodd" d="M214.583 231.893L217.06 234.464C220.892 238.442 220.774 244.772 216.797 248.604L201.347 263.487C195.593 265.62 189.195 266.234 182.736 264.942L183.857 259.339C186.922 244.018 199.757 233.141 214.583 231.893Z" fill="#DADADA"/>
<circle cx="185.735" cy="220.719" r="10" fill="white"/>
<path d="M176.68 162.281C172.848 158.304 172.966 151.973 176.944 148.141L234.557 92.6377C238.535 88.8059 244.865 88.924 248.697 92.9014L304.201 150.515C308.032 154.493 307.914 160.823 303.937 164.655L275.13 192.407C255.243 211.565 223.59 210.975 204.432 191.088L176.68 162.281Z" fill="#6D83F2"/>
<rect x="231.735" y="123.72" width="40" height="40" fill="white" fill-opacity="0.3"/>
<rect x="211.735" y="143.719" width="40" height="40" fill="white" fill-opacity="0.3"/>
<path d="M87.8738 70.099L152.689 7.65733C156.667 3.8256 162.997 3.94368 166.829 7.92108L194.581 36.7279C213.739 56.6149 213.149 88.2677 193.262 107.426L164.455 135.178C160.478 139.01 154.147 138.892 150.315 134.914L87.8738 70.099Z" fill="#C4C4C4"/>
<path d="M87.7332 70.5186L137.997 21.7998L151.917 36.161C171.136 55.9896 170.642 87.644 150.813 106.863L136.452 120.783L87.7332 70.5186Z" fill="#DADADA"/>
<path d="M87.7332 70.5186L116.456 42.6793V42.6793C131.831 58.5422 131.435 83.8657 115.572 99.2409V99.2409L87.7332 70.5186Z" fill="#EAE6E6"/>
</svg>
