<svg width="512" height="512" viewBox="0 0 512 512" fill="#fff" xmlns="http://www.w3.org/2000/svg">
<g clip-path="url(#clip0)">
<path d="M3.125 248.458L163.125 88.458C167.292 84.291 174.042 84.291 178.208 88.458C182.375 92.625 182.375 99.375 178.208 103.541L36.416 245.333H501.333C507.229 245.333 512 250.104 512 256C512 261.896 507.229 266.667 501.333 266.667H36.416L178.208 408.458C182.375 412.625 182.375 419.375 178.208 423.541C176.125 425.624 173.395 426.666 170.666 426.666C167.937 426.666 165.208 425.624 163.124 423.541L3.12399 263.541C-1.04201 259.375 -1.042 252.625 3.125 248.458Z" fill="black"/>
</g>
<defs>
<clipPath id="clip0">
<rect width="512" height="512" fill="white" transform="matrix(-1 0 0 1 512 0)"/>
</clipPath>
</defs>
</svg>
