<svg width="384" height="321" viewBox="0 0 384 321" fill="#fff" xmlns="http://www.w3.org/2000/svg">
<path d="M16 144.004H335.192L212.968 27.5879C206.568 21.4919 206.32 11.3639 212.416 4.9639C218.504 -1.4281 228.632 -1.6841 235.04 4.4119L374.624 137.372C380.664 143.42 384 151.452 384 160.004C384 168.548 380.664 176.588 374.344 182.9L235.032 315.588C231.936 318.54 227.968 320.004 224 320.004C219.776 320.004 215.552 318.34 212.408 315.036C206.312 308.636 206.56 298.516 212.96 292.42L335.696 176.004H16C7.168 176.004 0 168.836 0 160.004C0 151.172 7.168 144.004 16 144.004V144.004Z"/>
</svg>
