<svg width="86" height="17" viewBox="0 0 86 17" fill="none" xmlns="http://www.w3.org/2000/svg">
<path d="M2.44336 4.46875L5.23242 11.4297L8.02148 4.46875H9.48047V13H8.35547V9.67773L8.46094 6.0918L5.66016 13H4.79883L2.00391 6.10938L2.11523 9.67773V13H0.990234V4.46875H2.44336ZM16.2832 10.7734H12.709L11.9062 13H10.7461L14.0039 4.46875H14.9883L18.252 13H17.0977L16.2832 10.7734ZM13.0488 9.84766H15.9492L14.4961 5.85742L13.0488 9.84766ZM19.4004 13V4.46875H21.8086C22.5508 4.46875 23.207 4.63281 23.7773 4.96094C24.3477 5.28906 24.7871 5.75586 25.0957 6.36133C25.4082 6.9668 25.5664 7.66211 25.5703 8.44727V8.99219C25.5703 9.79688 25.4141 10.502 25.1016 11.1074C24.793 11.7129 24.3496 12.1777 23.7715 12.502C23.1973 12.8262 22.5273 12.9922 21.7617 13H19.4004ZM20.5254 5.39453V12.0801H21.709C22.5762 12.0801 23.25 11.8105 23.7305 11.2715C24.2148 10.7324 24.457 9.96484 24.457 8.96875V8.4707C24.457 7.50195 24.2285 6.75 23.7715 6.21484C23.3184 5.67578 22.6738 5.40234 21.8379 5.39453H20.5254ZM32.0977 9.05664H28.4004V12.0801H32.6953V13H27.2754V4.46875H32.6367V5.39453H28.4004V8.13672H32.0977V9.05664ZM38.9121 10.3105L39.0762 11.4355L39.3164 10.4219L41.0039 4.46875H41.9531L43.5996 10.4219L43.834 11.4531L44.0156 10.3047L45.3398 4.46875H46.4707L44.4023 13H43.377L41.6191 6.7832L41.4844 6.13281L41.3496 6.7832L39.5273 13H38.502L36.4395 4.46875H37.5645L38.9121 10.3105ZM48.9316 13H47.8066V4.46875H48.9316V13ZM56.7129 5.39453H53.9707V13H52.8516V5.39453H50.1152V4.46875H56.7129V5.39453ZM64.5352 13H63.4043V9.05664H59.1035V13H57.9785V4.46875H59.1035V8.13672H63.4043V4.46875H64.5352V13Z" fill="black"/>
<path d="M84.0459 2.62321C83.6511 2.22837 83.1823 1.91521 82.6664 1.70162C82.1504 1.48804 81.5975 1.37821 81.0391 1.37842C80.4807 1.37863 79.9279 1.48887 79.4121 1.70285C78.8963 1.91682 78.4278 2.23033 78.0333 2.62547L77.5182 3.14676L77.0075 2.6266L77.0042 2.62328C76.6095 2.22862 76.141 1.91557 75.6254 1.70198C75.1097 1.4884 74.5571 1.37847 73.999 1.37847C73.4408 1.37847 72.8882 1.4884 72.3726 1.70198C71.8569 1.91557 71.3884 2.22862 70.9938 2.62328L70.7643 2.85271C69.9673 3.64974 69.5195 4.73074 69.5195 5.85791C69.5195 6.98508 69.9673 8.06608 70.7643 8.86311L76.8197 14.9184L77.5035 15.6348L77.5198 15.6185L77.5375 15.6362L78.1782 14.9602L84.2753 8.86301C85.0712 8.06534 85.5181 6.98458 85.5181 5.85781C85.5181 4.73104 85.0712 3.65027 84.2753 2.85261L84.0459 2.62321ZM83.5239 8.11172L77.5198 14.1159L71.5156 8.11172C70.9178 7.51395 70.582 6.7032 70.582 5.85782C70.582 5.01245 70.9178 4.2017 71.5156 3.60393L71.745 3.3745C72.3425 2.77702 73.1528 2.44122 73.9977 2.44091C74.8427 2.44059 75.6532 2.77578 76.2511 3.3728L77.5159 4.66065L78.7868 3.3745C79.0827 3.07851 79.4341 2.84372 79.8209 2.68353C80.2076 2.52334 80.6221 2.44089 81.0407 2.44089C81.4593 2.44089 81.8738 2.52334 82.2605 2.68353C82.6472 2.84372 82.9986 3.07851 83.2946 3.3745L83.524 3.6039C84.1209 4.20216 84.4561 5.01275 84.456 5.85784C84.456 6.70292 84.1208 7.51349 83.5239 8.11172V8.11172Z" fill="black"/>
<path d="M84.0459 2.62321C83.6511 2.22837 83.1823 1.91521 82.6664 1.70162C82.1504 1.48804 81.5975 1.37821 81.0391 1.37842C80.4807 1.37863 79.9279 1.48887 79.4121 1.70285C78.8963 1.91682 78.4278 2.23033 78.0333 2.62547L77.5182 3.14676L77.0075 2.6266L77.0042 2.62328C76.6095 2.22862 76.141 1.91557 75.6254 1.70198C75.1097 1.4884 74.5571 1.37847 73.999 1.37847C73.4408 1.37847 72.8882 1.4884 72.3726 1.70198C71.8569 1.91557 71.3884 2.22862 70.9938 2.62328L70.7643 2.85271C69.9673 3.64974 69.5195 4.73074 69.5195 5.85791C69.5195 6.98508 69.9673 8.06608 70.7643 8.86311L76.8197 14.9184L77.5035 15.6348L77.5198 15.6185L77.5375 15.6362L78.1782 14.9602L84.2753 8.86301C85.0712 8.06534 85.5181 6.98458 85.5181 5.85781C85.5181 4.73104 85.0712 3.65027 84.2753 2.85261L84.0459 2.62321Z" fill="#6D83F2"/>
</svg>
