<?xml version="1.0" encoding="iso-8859-1"?>
<!-- Generator: Adobe Illustrator 19.0.0, SVG Export Plug-In . SVG Version: 6.00 Build 0)  -->
<svg version="1.1" id="Capa_1" xmlns="http://www.w3.org/2000/svg" xmlns:xlink="http://www.w3.org/1999/xlink" x="0px" y="0px"
	 viewBox="0 0 430.088 430.088" style="enable-background:new 0 0 430.088 430.088;" xml:space="preserve">
<g>
	<g>
		<path d="M393.531,114.787l-22.794-84.432c-3.905-14.445-18.896-23.054-33.454-19.183L20.293,95.474
			c-7.103,1.888-13.022,6.407-16.664,12.721c-3.618,6.263-4.57,13.565-2.679,20.558l46.411,171.923
			c0.823,3.041,3.577,5.048,6.588,5.048c0.587,0,1.184-0.082,1.785-0.246c3.639-0.983,5.792-4.731,4.809-8.37L14.132,125.191
			c-0.935-3.461-0.464-7.076,1.324-10.175c1.816-3.147,4.779-5.4,8.346-6.349l316.989-84.302c7.298-1.935,14.821,2.342,16.766,9.55
			l22.794,84.432c0.98,3.635,4.721,5.796,8.37,4.809C392.36,122.173,394.514,118.425,393.531,114.787z"/>
	</g>
</g>
<g>
	<g>
		<path d="M402.785,112.643H75.098c-15.056,0-27.303,12.268-27.303,27.348v252.498c0,15.083,12.247,27.354,27.303,27.354h327.687
			c15.056,0,27.303-12.271,27.303-27.351V139.994C430.088,124.914,417.841,112.643,402.785,112.643z M416.434,392.492
			c0,7.554-6.123,13.701-13.65,13.701H75.098c-7.526,0-13.65-6.147-13.65-13.701V139.994c0-7.554,6.123-13.698,13.65-13.698v-0.003
			h327.687c7.526,0,13.65,6.144,13.65,13.698V392.492z"/>
	</g>
</g>
<g>
	<g>
		<path d="M204.808,249.176H88.754c-3.768,0-6.827,3.058-6.827,6.827v68.267c0,3.768,3.058,6.827,6.827,6.827h116.053
			c3.768,0,6.827-3.058,6.827-6.827v-68.267C211.634,252.235,208.576,249.176,204.808,249.176z M197.981,317.443h-102.4V262.83
			h102.4V317.443z"/>
	</g>
</g>
<g>
	<g>
		<rect x="225.284" y="256.003" width="170.667" height="13.653"/>
	</g>
</g>
<g>
	<g>
		<rect x="225.284" y="310.616" width="170.667" height="13.653"/>
	</g>
</g>
<g>
	<g>
		<rect x="225.284" y="283.31" width="170.667" height="13.653"/>
	</g>
</g>
<g>
	<g>
		<rect x="88.751" y="337.923" width="307.2" height="13.653"/>
	</g>
</g>
<g>
	<g>
		<rect x="88.751" y="365.23" width="307.2" height="13.653"/>
	</g>
</g>
<g>
	<g>
		<path d="M133.848,162.16c-0.113-0.799-0.379-1.495-0.799-2.082c-0.42-0.591-1.048-1.058-1.874-1.413
			c-0.829-0.348-1.959-0.526-3.389-0.526c-1.294,0-2.311,0.174-3.055,0.526c-0.748,0.352-1.307,0.823-1.686,1.413
			c-0.379,0.587-0.625,1.283-0.737,2.082c-0.113,0.799-0.167,1.649-0.167,2.55v34.953h-1.014l-13.391-36.304
			c-0.369-0.983-0.86-1.853-1.478-2.611c-0.56-0.645-1.283-1.242-2.167-1.789c-0.888-0.55-2.031-0.823-3.434-0.823h-5.56
			c-1.574,0-2.785,0.273-3.642,0.823s-1.481,1.28-1.874,2.191c-0.393,0.911-0.625,1.952-0.693,3.116
			c-0.072,1.164-0.106,2.348-0.106,3.557v42.704c0,0.901,0.058,1.748,0.167,2.546c0.113,0.799,0.379,1.495,0.802,2.086
			c0.42,0.587,1.051,1.062,1.894,1.41c0.843,0.348,1.993,0.526,3.454,0.526c1.29,0,2.311-0.177,3.055-0.526
			c0.744-0.348,1.307-0.823,1.686-1.41c0.379-0.591,0.625-1.287,0.737-2.086c0.109-0.799,0.167-1.645,0.167-2.546v-34.956h1.01
			l12.721,34.451c0.195,0.563,0.468,1.253,0.819,2.065c0.352,0.816,0.823,1.594,1.413,2.335c0.587,0.748,1.324,1.382,2.208,1.901
			c0.884,0.519,1.987,0.778,3.307,0.778h5.56c1.543,0,2.744-0.273,3.601-0.823s1.475-1.277,1.853-2.188
			c0.379-0.911,0.604-1.946,0.672-3.096c0.068-1.15,0.106-2.345,0.106-3.581V164.71C134.019,163.809,133.961,162.959,133.848,162.16
			z"/>
	</g>
</g>
<g>
	<g>
		<path d="M179.088,187.218c-0.116-1.161-0.369-2.314-0.761-3.454c-0.396-1.133-0.986-2.239-1.772-3.304
			c-0.785-1.065-1.853-2.01-3.202-2.823c-1.348-0.812-3.028-1.475-5.035-1.98s-4.427-0.758-7.264-0.758
			c-0.843,0-1.847,0.044-3.014,0.126c-1.164,0.085-2.393,0.297-3.683,0.631c-1.294,0.338-2.57,0.853-3.833,1.539
			s-2.4,1.649-3.41,2.884c-1.01,1.236-1.833,2.778-2.464,4.632c-0.631,1.853-0.949,4.113-0.949,6.779v9.865
			c0,2.891,0.481,5.332,1.434,7.325s2.239,3.608,3.854,4.844c1.615,1.236,3.475,2.137,5.581,2.697s4.321,0.853,6.653,0.884
			c1.771,0,3.673-0.154,5.707-0.464c2.038-0.307,3.922-0.826,5.666-1.56c1.741-0.724,3.188-1.703,4.338-2.925
			c1.15-1.222,1.727-2.744,1.727-4.567c0-0.874-0.157-1.58-0.464-2.127c-0.307-0.546-0.717-0.976-1.219-1.287
			c-0.509-0.307-1.092-0.522-1.751-0.635c-0.662-0.109-1.341-0.167-2.041-0.167c-1.461,0-2.608,0.133-3.434,0.399
			c-0.829,0.266-1.471,0.597-1.935,0.99c-0.464,0.393-0.836,0.816-1.116,1.263c-0.28,0.451-0.594,0.874-0.945,1.263
			c-0.355,0.393-0.829,0.724-1.434,0.99c-0.604,0.266-1.468,0.399-2.591,0.399c-0.986,0-1.812-0.198-2.485-0.591
			c-0.679-0.389-1.219-0.894-1.625-1.516c-0.406-0.618-0.693-1.29-0.864-2.021c-0.167-0.73-0.253-1.434-0.253-2.106V198.4h16.766
			c1.488,0,2.642-0.198,3.454-0.591c0.812-0.393,1.41-0.86,1.789-1.41c0.379-0.546,0.597-1.123,0.652-1.727
			c0.055-0.604,0.082-1.13,0.082-1.58h0.007v-2.608C179.256,189.47,179.197,188.385,179.088,187.218z M156.506,192.082h-0.003
			v-2.949c0-0.478,0.041-1.024,0.126-1.642s0.297-1.205,0.635-1.751c0.338-0.546,0.836-1,1.495-1.365
			c0.659-0.365,1.567-0.546,2.717-0.546c1.379,0,2.441,0.178,3.181,0.546c0.741,0.369,1.287,0.901,1.642,1.601
			c0.352,0.7,0.563,1.567,0.631,2.591c0.068,1.024,0.106,2.195,0.106,3.516H156.506z"/>
	</g>
</g>
<g>
	<g>
		<path d="M240.272,178.985c-0.195-0.758-0.519-1.43-0.966-2.021c-0.451-0.587-1.027-1.068-1.727-1.434
			c-0.703-0.362-1.56-0.546-2.57-0.546c-0.983,0-1.826,0.174-2.526,0.526c-0.703,0.352-1.307,0.812-1.809,1.389
			c-0.505,0.577-0.935,1.229-1.287,1.956c-0.352,0.734-0.638,1.495-0.864,2.277l-4.717,16.51h-0.672l-4.465-11.875
			c-0.816-2.219-1.748-3.758-2.799-4.611c-1.055-0.86-2.253-1.287-3.604-1.287c-1.348,0-2.604,0.427-3.772,1.29
			c-1.164,0.853-2.096,2.396-2.799,4.611l-3.874,11.875h-0.672l-5.308-16.51c-0.253-0.782-0.563-1.543-0.925-2.277
			c-0.369-0.727-0.802-1.379-1.307-1.956c-0.505-0.577-1.072-1.034-1.707-1.389c-0.631-0.348-1.341-0.526-2.127-0.526
			c-1.123,0-2.062,0.167-2.819,0.505c-0.761,0.335-1.369,0.792-1.833,1.365c-0.464,0.58-0.799,1.246-1.01,2
			c-0.212,0.758-0.317,1.546-0.317,2.359c0,0.761,0.106,1.526,0.317,2.297c0.208,0.771,0.444,1.498,0.693,2.171l9.438,24.846
			c0.618,1.655,1.208,2.925,1.768,3.813c0.563,0.881,1.116,1.526,1.662,1.932c0.55,0.41,1.096,0.649,1.642,0.72
			c0.546,0.065,1.13,0.102,1.748,0.102c0.563,0,1.099-0.034,1.604-0.102c0.505-0.075,1.004-0.311,1.495-0.72
			c0.488-0.406,0.997-1.048,1.516-1.932c0.519-0.887,1.085-2.157,1.707-3.813l4.547-15.159h0.672l4.379,15.159
			c0.621,1.655,1.208,2.925,1.772,3.813c0.56,0.881,1.116,1.526,1.662,1.932c0.546,0.41,1.096,0.649,1.642,0.72
			c0.546,0.065,1.13,0.102,1.748,0.102c0.563,0,1.099-0.034,1.601-0.102c0.505-0.075,1.014-0.311,1.516-0.72
			c0.505-0.406,1.017-1.048,1.536-1.932c0.522-0.887,1.106-2.157,1.751-3.813l9.349-24.846c0.249-0.734,0.481-1.458,0.693-2.171
			c0.212-0.713,0.317-1.451,0.317-2.208C240.569,180.517,240.47,179.746,240.272,178.985z"/>
	</g>
</g>
<g>
	<g>
		<path d="M275.669,199.98c-0.747-1.365-1.707-2.563-2.888-3.604c-1.174-1.038-2.482-1.939-3.915-2.714
			c-1.43-0.775-2.836-1.495-4.209-2.171c-0.901-0.42-1.765-0.843-2.591-1.263c-0.833-0.42-1.56-0.846-2.191-1.287
			c-0.631-0.433-1.13-0.884-1.495-1.365c-0.362-0.478-0.546-0.997-0.546-1.56c0-0.614,0.113-1.12,0.321-1.512
			c0.208-0.393,0.488-0.71,0.84-0.945c0.355-0.239,0.747-0.406,1.181-0.505c0.437-0.099,0.891-0.147,1.369-0.147
			c1.147,0,2.127,0.28,2.925,0.84c0.799,0.563,1.225,1.379,1.283,2.444c0,0.393,0.106,0.799,0.318,1.222
			c0.212,0.42,0.515,0.799,0.908,1.133c0.393,0.341,0.864,0.621,1.41,0.846s1.157,0.335,1.833,0.335
			c0.782-0.024,1.543-0.102,2.273-0.229c0.73-0.126,1.382-0.348,1.956-0.672c0.577-0.324,1.038-0.758,1.389-1.307
			c0.352-0.546,0.526-1.242,0.526-2.082c0-0.505-0.034-1.123-0.102-1.853c-0.068-0.73-0.253-1.495-0.55-2.297
			c-0.294-0.799-0.744-1.591-1.348-2.376c-0.604-0.785-1.43-1.495-2.485-2.127c-1.051-0.631-2.372-1.147-3.959-1.539
			c-1.587-0.393-3.516-0.587-5.789-0.587h-0.672c-2.529,0.051-4.779,0.28-6.758,0.672s-3.662,1.044-5.035,1.956
			c-1.376,0.911-2.424,2.103-3.137,3.581c-0.717,1.471-1.075,3.301-1.075,5.495c0,1.488,0.324,2.813,0.969,3.98
			c0.645,1.167,1.485,2.212,2.526,3.137c1.041,0.925,2.198,1.768,3.475,2.526c1.28,0.758,2.55,1.475,3.813,2.15
			c1.01,0.56,2,1.113,2.97,1.659c0.966,0.546,1.83,1.12,2.591,1.707c0.758,0.591,1.365,1.232,1.83,1.918
			c0.464,0.69,0.696,1.423,0.696,2.208c0,0.925-0.348,1.679-1.034,2.253c-0.686,0.577-1.58,0.867-2.673,0.867
			c-0.533,0-1.079-0.034-1.642-0.106c-0.56-0.068-1.072-0.212-1.536-0.42c-0.464-0.212-0.843-0.485-1.137-0.823
			c-0.297-0.338-0.457-0.785-0.485-1.352c-0.058-1.679-0.536-2.901-1.434-3.659c-0.901-0.761-2.051-1.14-3.454-1.14
			c-1.939,0-3.379,0.393-4.318,1.181c-0.939,0.788-1.41,2.021-1.41,3.707c0,0.7,0.082,1.468,0.249,2.294
			c0.171,0.829,0.464,1.666,0.888,2.505c0.42,0.843,1.003,1.655,1.748,2.423c0.744,0.768,1.69,1.457,2.843,2.062
			c1.15,0.604,2.526,1.089,4.127,1.454c1.597,0.362,3.478,0.546,5.642,0.546c1.096,0,2.26-0.075,3.495-0.232
			c1.232-0.154,2.447-0.413,3.642-0.778c1.195-0.365,2.331-0.857,3.41-1.478c1.079-0.614,2.031-1.396,2.843-2.335
			c0.812-0.939,1.464-2.058,1.956-3.349c0.495-1.29,0.741-2.782,0.741-4.465C276.785,202.95,276.413,201.342,275.669,199.98z"/>
	</g>
</g>
<g>
</g>
<g>
</g>
<g>
</g>
<g>
</g>
<g>
</g>
<g>
</g>
<g>
</g>
<g>
</g>
<g>
</g>
<g>
</g>
<g>
</g>
<g>
</g>
<g>
</g>
<g>
</g>
<g>
</g>
</svg>
