<svg width="2614" height="1999" viewBox="0 0 2614 1999" fill="none" xmlns="http://www.w3.org/2000/svg">
<path d="M0 1305C0 1278.33 10.6667 1253.67 32 1231C56 1210.33 81 1200 107 1200H355C383.667 1200 407.667 1210.33 427 1231C446.333 1251.67 456 1276.33 456 1305C456 1335.67 446.333 1361.33 427 1382C407.667 1402.67 383.667 1413 355 1413H107C78.3333 1413 53.3333 1402.17 32 1380.5C10.6667 1358.83 0 1333.67 0 1305ZM355 454C355 425.333 364.333 401 383 381C407 360.333 432 350 458 350C486 350 510.333 360.333 531 381L706 557C726 580.333 736 605 736 631C736 661 726.333 686 707 706C687.667 726 664.333 736 637 736C611 736 586 725.667 562 705L383 532C364.333 509.333 355 483.333 355 454ZM568 1894C568 1864 578.333 1839.67 599 1821C617.667 1802.33 642 1793 672 1793H953L1285 1481C1295.67 1472.33 1307.67 1472.33 1321 1481L1658 1793H1953C1981.67 1793 2006.17 1802.83 2026.5 1822.5C2046.83 1842.17 2057 1866 2057 1894C2057 1922.67 2046.83 1947.33 2026.5 1968C2006.17 1988.67 1981.67 1999 1953 1999H1592C1581.33 1999 1571 1996.33 1561 1991L1304 1749L1049 1991C1040.33 1996.33 1030.33 1999 1019 1999H672C643.333 1999 618.833 1988.67 598.5 1968C578.167 1947.33 568 1922.67 568 1894ZM667 1305C667 1408.33 689 1502.33 733 1587C735.667 1599.67 744.667 1606 760 1606H961C969 1606 974.333 1603 977 1597C979.667 1591 979 1584.33 975 1577C907 1495 873 1404.33 873 1305C873 1185 915.667 1083 1001 999C1086.33 915 1189 873 1309 873C1428.33 873 1530.17 915 1614.5 999C1698.83 1083 1741 1185 1741 1305C1741 1405 1707.33 1495.67 1640 1577C1635.33 1584.33 1634.17 1591 1636.5 1597C1638.83 1603 1644.33 1606 1653 1606H1856C1870 1606 1878.33 1599.67 1881 1587C1925 1505 1947 1411 1947 1305C1947 1218.33 1930 1135.67 1896 1057C1862 978.333 1816.5 910.5 1759.5 853.5C1702.5 796.5 1634.67 751.167 1556 717.5C1477.33 683.833 1395 667 1309 667C1222.33 667 1139.5 683.833 1060.5 717.5C981.5 751.167 913.167 796.5 855.5 853.5C797.833 910.5 752 978.333 718 1057C684 1135.67 667 1218.33 667 1305ZM1203 350V105C1203 74.3333 1213 49.1667 1233 29.5C1253 9.83333 1278.33 0 1309 0C1339 0 1363.83 10 1383.5 30C1403.17 50 1413 75 1413 105V350C1413 380.667 1403.17 405.833 1383.5 425.5C1363.83 445.167 1339 455 1309 455C1278.33 455 1253 445.167 1233 425.5C1213 405.833 1203 380.667 1203 350ZM1880 631C1880 604.333 1889.67 579.667 1909 557L2082 381C2102.67 360.333 2127.67 350 2157 350C2186.33 350 2211 360.167 2231 380.5C2251 400.833 2261 425.333 2261 454C2261 484.667 2251.67 510.667 2233 532L2053 705C2030.33 725.667 2005.33 736 1978 736C1949.33 736 1925.83 726.167 1907.5 706.5C1889.17 686.833 1880 661.667 1880 631ZM2159 1305C2159 1276.33 2168.5 1251.67 2187.5 1231C2206.5 1210.33 2230 1200 2258 1200H2509C2537.67 1200 2562.33 1210.33 2583 1231C2603.67 1251.67 2614 1276.33 2614 1305C2614 1334.33 2603.67 1359.67 2583 1381C2562.33 1402.33 2537.67 1413 2509 1413H2258C2229.33 1413 2205.67 1402.67 2187 1382C2168.33 1361.33 2159 1335.67 2159 1305Z" fill="black"/>
</svg>
