<svg width="2585" height="2284" viewBox="0 0 2585 2284" fill="none" xmlns="http://www.w3.org/2000/svg">
<path d="M0 1292C0 1262.67 10.6667 1238.67 32 1220C50.6667 1201.33 75 1192 105 1192H351C379.667 1192 403.333 1201.5 422 1220.5C440.667 1239.5 450 1263.33 450 1292C450 1322 440.5 1347.17 421.5 1367.5C402.5 1387.83 379 1398 351 1398H105C76.3333 1398 51.6667 1387.5 31 1366.5C10.3333 1345.5 0 1320.67 0 1292ZM351 454C351 424 360 400 378 382C399.333 360.667 424.333 350 453 350C483.667 350 507.667 360.667 525 382L698 556C747.333 602.667 747.333 650.667 698 700C678 720 655 730 629 730C605.667 730 581.667 720 557 700L378 526C360 506.667 351 482.667 351 454ZM561 1870C561 1842 571.667 1817.33 593 1796C612.333 1776.67 636.333 1767 665 1767H1008C1019.33 1767 1029.33 1769.67 1038 1775L1289 2012L1544 1775C1551.33 1769.67 1561.67 1767 1575 1767H1927C1955.67 1767 1980.17 1777 2000.5 1797C2020.83 1817 2031 1841.33 2031 1870C2031 1898.67 2020.83 1923.17 2000.5 1943.5C1980.17 1963.83 1955.67 1974 1927 1974H1641L1306 2277C1292.67 2286.33 1281 2286.33 1271 2277L942 1974H665C636.333 1974 611.833 1963.83 591.5 1943.5C571.167 1923.17 561 1898.67 561 1870ZM661 1292C661 1398 681.667 1491.33 723 1572C729 1583.33 738.667 1589 752 1589H951C959.667 1589 965 1586.33 967 1581C969 1575.67 966.333 1569.33 959 1562C895.667 1482.67 864 1392.67 864 1292C864 1174.67 906 1074.83 990 992.5C1074 910.167 1175.33 869 1294 869C1411.33 869 1511.83 910.333 1595.5 993C1679.17 1075.67 1721 1175.33 1721 1292C1721 1392.67 1689.33 1482.67 1626 1562C1618.67 1569.33 1616 1575.67 1618 1581C1620 1586.33 1625.33 1589 1634 1589H1835C1849 1589 1857.67 1583.33 1861 1572C1905 1488.67 1927 1395.33 1927 1292C1927 1207.33 1910.17 1125.83 1876.5 1047.5C1842.83 969.167 1797.67 901.667 1741 845C1684.33 788.333 1617 743.167 1539 709.5C1461 675.833 1379.33 659 1294 659C1208.67 659 1127 675.833 1049 709.5C971 743.167 903.667 788.333 847 845C790.333 901.667 745.167 969.167 711.5 1047.5C677.833 1125.83 661 1207.33 661 1292ZM1190 352V104C1190 75.3333 1200.17 50.8333 1220.5 30.5C1240.83 10.1667 1265.33 0 1294 0C1322.67 0 1347.17 10.1667 1367.5 30.5C1387.83 50.8333 1398 75.3333 1398 104V352C1398 380.667 1387.83 405.167 1367.5 425.5C1347.17 445.833 1322.67 456 1294 456C1265.33 456 1240.83 445.833 1220.5 425.5C1200.17 405.167 1190 380.667 1190 352ZM1859 628C1859 598 1868.33 574 1887 556L2061 382C2078.33 360.667 2102.33 350 2133 350C2162.33 350 2186.67 360.167 2206 380.5C2225.33 400.833 2235 425.333 2235 454C2235 484 2226 508 2208 526L2031 700C2006.33 720 1981.67 730 1957 730C1929 730 1905.67 720.167 1887 700.5C1868.33 680.833 1859 656.667 1859 628ZM2135 1292C2135 1263.33 2144.33 1239.5 2163 1220.5C2181.67 1201.5 2205.33 1192 2234 1192H2481C2509.67 1192 2534.17 1201.67 2554.5 1221C2574.83 1240.33 2585 1264 2585 1292C2585 1320.67 2574.83 1345.5 2554.5 1366.5C2534.17 1387.5 2509.67 1398 2481 1398H2234C2206 1398 2182.5 1387.83 2163.5 1367.5C2144.5 1347.17 2135 1322 2135 1292Z" fill="black"/>
</svg>
